<?xml version="1.0" encoding="UTF-8" standalone="no"?>
<svg xmlns="http://www.w3.org/2000/svg" width="1200" height="700" viewBox="0 0 1200 700">
  <style>
    .box { fill:#ffffff; stroke:#333; stroke-width:1.5px; rx:6; ry:6 }
    .label { font-family: Arial, Helvetica, sans-serif; font-size:14px; fill:#111 }
    .small { font-size:12px; fill:#333 }
    .title { font-weight:700; font-size:16px }
    .arrow { stroke:#555; stroke-width:1.4; fill:none; marker-end:url(#arrowhead) }
  </style>

  <defs>
    <marker id="arrowhead" markerWidth="10" markerHeight="7" refX="10" refY="3.5" orient="auto">
      <polygon points="0 0, 10 3.5, 0 7" fill="#555" />
    </marker>
  </defs>

  <!-- Title -->
  <text x="20" y="28" class="title">Notification Service — Architecture (UML-style)</text>

  <!-- API stack -->
  <rect x="40" y="60" width="200" height="50" class="box"/>
  <text x="150" y="90" text-anchor="middle" class="label">Client</text>

  <rect x="280" y="40" width="240" height="80" class="box"/>
  <text x="400" y="72" text-anchor="middle" class="label">NotificationController</text>

  <rect x="560" y="40" width="240" height="80" class="box"/>
  <text x="680" y="72" text-anchor="middle" class="label">NotificationService</text>

  <!-- Persistence -->
  <rect x="940" y="20" width="200" height="60" class="box"/>
  <text x="1040" y="48" text-anchor="middle" class="label">Notification Repository</text>

  <rect x="940" y="100" width="200" height="60" class="box"/>
  <text x="1040" y="128" text-anchor="middle" class="label">Outbox Table</text>

  <!-- Outbox publisher and Kafka -->
  <rect x="560" y="160" width="240" height="60" class="box"/>
  <text x="680" y="192" text-anchor="middle" class="label">OutboxPublisher</text>

  <rect x="280" y="160" width="240" height="60" class="box"/>
  <text x="400" y="192" text-anchor="middle" class="label">Outbox Repository</text>

  <rect x="40" y="240" width="240" height="80" class="box"/>
  <text x="160" y="285" text-anchor="middle" class="label">Kafka Topics</text>

  <!-- Consumer and Processor -->
  <rect x="320" y="280" width="260" height="80" class="box"/>
  <text x="450" y="325" text-anchor="middle" class="label">NotificationConsumer</text>

  <rect x="620" y="280" width="260" height="80" class="box"/>
  <text x="750" y="325" text-anchor="middle" class="label">NotificationProcessor</text>

  <!-- Channels -->
  <rect x="960" y="260" width="200" height="40" class="box"/>
  <text x="1060" y="286" text-anchor="middle" class="label">ChannelFactory</text>

  <rect x="960" y="320" width="200" height="40" class="box"/>
  <text x="1060" y="346" text-anchor="middle" class="label">EmailChannel</text>

  <rect x="960" y="380" width="200" height="40" class="box"/>
  <text x="1060" y="406" text-anchor="middle" class="label">SmsChannel</text>

  <rect x="960" y="440" width="200" height="40" class="box"/>
  <text x="1060" y="466" text-anchor="middle" class="label">PushChannel</text>

  <!-- DLQ and Retry -->
  <rect x="620" y="380" width="200" height="40" class="box"/>
  <text x="720" y="406" text-anchor="middle" class="label">RetryWorker / Backoff</text>

  <rect x="320" y="380" width="200" height="40" class="box"/>
  <text x="420" y="406" text-anchor="middle" class="label">DlqProducer / DLQ Topic</text>

  <!-- Arrows -->
  <path class="arrow" d="M240,85 L280,85" />
  <path class="arrow" d="M520,60 L560,60" />
  <path class="arrow" d="M800,80 L940,50" />
  <path class="arrow" d="M800,80 L940,120" />
  <path class="arrow" d="M680,120 L680,160" />
  <path class="arrow" d="M680,220 L520,220" />
  <path class="arrow" d="M320,220 L320,240" />
  <path class="arrow" d="M520,320 L620,320" />
  <path class="arrow" d="M880,320 L960,320" />
  <path class="arrow" d="M820,400 L760,400" />
  <path class="arrow" d="M760,420 L720,420" />

  <!-- Notes -->
  <text x="40" y="660" class="small">Generated: basic SVG UML-style architecture diagram showing API → service → persistence → outbox → kafka → consumer → processor → channels.</text>
</svg>
