<?xml version="1.0" encoding="UTF-8" standalone="no"?>
<svg xmlns="http://www.w3.org/2000/svg" width="1200" height="700" viewBox="0 0 1200 700">
  <style>
    .box { fill:#ffffff; stroke:#333; stroke-width:1.5px; rx:6; ry:6 }
    .label { font-family: Arial, Helvetica, sans-serif; font-size:14px; fill:#111 }
    .title { font-weight:700; font-size:18px; fill:#111 }
    .small { font-size:12px; fill:#333 }
    .arrow { stroke:#555; stroke-width:1.4; fill:none; marker-end:url(#arrowhead) }
  </style>

  <defs>
    <marker id="arrowhead" markerWidth="10" markerHeight="7" refX="10" refY="3.5" orient="auto">
      <polygon points="0 0, 10 3.5, 0 7" fill="#555" />
    </marker>
  </defs>

  <text x="20" y="30" class="title">Notification Service Architecture</text>

  <!-- API path -->
  <rect x="40" y="70" width="180" height="60" class="box" />
  <text x="130" y="110" text-anchor="middle" class="label">Client</text>

  <rect x="260" y="60" width="220" height="80" class="box" />
  <text x="370" y="100" text-anchor="middle" class="label">NotificationController</text>

  <rect x="520" y="60" width="220" height="80" class="box" />
  <text x="630" y="100" text-anchor="middle" class="label">NotificationService</text>

  <!-- Persistence and outbox -->
  <rect x="520" y="170" width="220" height="60" class="box" />
  <text x="630" y="205" text-anchor="middle" class="label">OutboxPublisher</text>

  <rect x="860" y="60" width="220" height="60" class="box" />
  <text x="970" y="95" text-anchor="middle" class="label">NotificationRepository</text>

  <rect x="860" y="140" width="220" height="60" class="box" />
  <text x="970" y="175" text-anchor="middle" class="label">OutboxRepository</text>

  <rect x="520" y="260" width="220" height="60" class="box" />
  <text x="630" y="295" text-anchor="middle" class="label">Kafka Topics</text>

  <!-- Consumer and processing -->
  <rect x="520" y="350" width="220" height="80" class="box" />
  <text x="630" y="395" text-anchor="middle" class="label">NotificationConsumer</text>

  <rect x="820" y="350" width="220" height="80" class="box" />
  <text x="930" y="395" text-anchor="middle" class="label">NotificationProcessor</text>

  <!-- Channels -->
  <rect x="1080" y="250" width="220" height="50" class="box" />
  <text x="1190" y="280" text-anchor="middle" class="label">ChannelFactory</text>

  <rect x="1080" y="320" width="220" height="40" class="box" />
  <text x="1190" y="345" text-anchor="middle" class="label">EmailChannel</text>

  <rect x="1080" y="370" width="220" height="40" class="box" />
  <text x="1190" y="395" text-anchor="middle" class="label">SmsChannel</text>

  <rect x="1080" y="420" width="220" height="40" class="box" />
  <text x="1190" y="445" text-anchor="middle" class="label">PushChannel</text>

  <!-- Retry and DLQ -->
  <rect x="820" y="460" width="220" height="40" class="box" />
  <text x="930" y="485" text-anchor="middle" class="label">RetryWorker / Backoff</text>

  <rect x="520" y="460" width="220" height="40" class="box" />
  <text x="630" y="485" text-anchor="middle" class="label">DlqProducer / DLQ Topic</text>

  <!-- Arrows -->
  <path class="arrow" d="M220,100 L260,100" />
  <path class="arrow" d="M480,100 L520,100" />
  <path class="arrow" d="M740,90 L860,90" />
  <path class="arrow" d="M740,110 L860,170" />
  <path class="arrow" d="M630,140 L630,170" />
  <path class="arrow" d="M630,230 L630,260" />
  <path class="arrow" d="M630,320 L630,350" />
  <path class="arrow" d="M740,390 L820,390" />
  <path class="arrow" d="M1040,275 L1080,275" />
  <path class="arrow" d="M1040,340 L1080,340" />
  <path class="arrow" d="M1040,390 L1080,390" />
  <path class="arrow" d="M930,430 L930,460" />
  <path class="arrow" d="M750,480 L740,480 L740,500 L630,500" />

  <text x="40" y="680" class="small">Corrected architecture diagram showing request flow, persistence/outbox, Kafka, consumer processing, channels, and retry/DLQ.</text>
</svg>
